<svg width="30" height="8" viewBox="0 0 30 8" fill="none" xmlns="http://www.w3.org/2000/svg">
<path d="M2.80602 0.0699998C2.92602 0.29 3.06268 0.563333 3.21602 0.89C3.37602 1.21 3.53935 1.56 3.70602 1.94C3.87935 2.31333 4.04935 2.69667 4.21602 3.09C4.38268 3.48333 4.53935 3.85333 4.68602 4.2C4.83268 3.85333 4.98935 3.48333 5.15602 3.09C5.32268 2.69667 5.48935 2.31333 5.65602 1.94C5.82935 1.56 5.99268 1.21 6.14602 0.89C6.30602 0.563333 6.44602 0.29 6.56602 0.0699998H7.98602C8.05268 0.53 8.11268 1.04667 8.16602 1.62C8.22602 2.18667 8.27602 2.78 8.31602 3.4C8.36268 4.01333 8.40268 4.63 8.43602 5.25C8.47602 5.87 8.50935 6.45333 8.53602 7H7.01602C6.99602 6.32667 6.96935 5.59333 6.93602 4.8C6.90268 4.00667 6.85268 3.20667 6.78602 2.4C6.66602 2.68 6.53268 2.99 6.38602 3.33C6.23935 3.67 6.09268 4.01 5.94602 4.35C5.80602 4.69 5.66935 5.01667 5.53602 5.33C5.40268 5.63667 5.28935 5.9 5.19602 6.12H4.10602C4.01268 5.9 3.89935 5.63667 3.76602 5.33C3.63268 5.01667 3.49268 4.69 3.34602 4.35C3.20602 4.01 3.06268 3.67 2.91602 3.33C2.76935 2.99 2.63602 2.68 2.51602 2.4C2.44935 3.20667 2.39935 4.00667 2.36602 4.8C2.33268 5.59333 2.30602 6.32667 2.28602 7H0.766016C0.792682 6.45333 0.822682 5.87 0.856016 5.25C0.896016 4.63 0.936016 4.01333 0.976016 3.4C1.02268 2.78 1.07268 2.18667 1.12602 1.62C1.18602 1.04667 1.24935 0.53 1.31602 0.0699998H2.80602ZM9.94063 7V0.0699998H14.6206V1.38H11.5006V2.74H14.2706V4.02H11.5006V5.69H14.8506V7H9.94063ZM20.6551 7C20.2084 6.20667 19.7251 5.42333 19.2051 4.65C18.6851 3.87667 18.1317 3.14667 17.5451 2.46V7H16.0051V0.0699998H17.2751C17.4951 0.29 17.7384 0.56 18.0051 0.88C18.2717 1.2 18.5417 1.54333 18.8151 1.91C19.0951 2.27 19.3717 2.64667 19.6451 3.04C19.9184 3.42667 20.1751 3.8 20.4151 4.16V0.0699998H21.9651V7H20.6551ZM26.2737 7.14C25.787 7.14 25.367 7.07333 25.0137 6.94C24.6603 6.8 24.367 6.61 24.1337 6.37C23.907 6.12333 23.737 5.83333 23.6237 5.5C23.517 5.16 23.4637 4.78667 23.4637 4.38V0.0699998H25.0237V4.25C25.0237 4.53 25.0537 4.77 25.1137 4.97C25.1803 5.16333 25.267 5.32333 25.3737 5.45C25.487 5.57 25.6203 5.65667 25.7737 5.71C25.9337 5.76333 26.107 5.79 26.2937 5.79C26.6737 5.79 26.9803 5.67333 27.2137 5.44C27.4537 5.20667 27.5737 4.81 27.5737 4.25V0.0699998H29.1337V4.38C29.1337 4.78667 29.077 5.16 28.9637 5.5C28.8503 5.84 28.677 6.13333 28.4437 6.38C28.2103 6.62 27.9137 6.80667 27.5537 6.94C27.1937 7.07333 26.767 7.14 26.2737 7.14Z" fill="#111827"/>
</svg>
